<mxfile host="app.diagrams.net" modified="2024-06-20T07:08:59.963Z" agent="Mozilla/5.0 (Windows NT 10.0; Win64; x64) AppleWebKit/537.36 (KHTML, like Gecko) Chrome/126.0.0.0 Safari/537.36 Edg/126.0.0.0" version="24.5.5" etag="gZCR-S0nu5JGC8Kvzhmy" type="github">
  <diagram name="Page-1" id="85GQb_zBdjDWhtmq_g8l">
    <mxGraphModel>
      <root>
        <mxCell id="0" />
        <mxCell id="1" parent="0" />
      </root>
    </mxGraphModel>
  </diagram>
</mxfile>
